<?xml version="1.0" encoding="UTF-8" standalone="no"?>
<!-- Created with Inkscape (http://www.inkscape.org/) -->

<svg
   xmlns:dc="http://purl.org/dc/elements/1.1/"
   xmlns:cc="http://creativecommons.org/ns#"
   xmlns:rdf="http://www.w3.org/1999/02/22-rdf-syntax-ns#"
   xmlns:svg="http://www.w3.org/2000/svg"
   xmlns="http://www.w3.org/2000/svg"
   xmlns:sodipodi="http://sodipodi.sourceforge.net/DTD/sodipodi-0.dtd"
   xmlns:inkscape="http://www.inkscape.org/namespaces/inkscape"
   version="1.1"
   id="svg815"
   width="1480"
   height="1286.6667"
   viewBox="0 0 1480 1286.6667"
   sodipodi:docname="auteur_jimdunk.svg"
   inkscape:version="0.92.4 (5da689c313, 2019-01-14)">
  <metadata
     id="metadata821">
    <rdf:RDF>
      <cc:Work
         rdf:about="">
        <dc:format>image/svg+xml</dc:format>
        <dc:type
           rdf:resource="http://purl.org/dc/dcmitype/StillImage" />
        <dc:title></dc:title>
      </cc:Work>
    </rdf:RDF>
  </metadata>
  <defs
     id="defs819" />
  <sodipodi:namedview
     pagecolor="#ffffff"
     bordercolor="#666666"
     borderopacity="1"
     objecttolerance="10"
     gridtolerance="10"
     guidetolerance="10"
     inkscape:pageopacity="0"
     inkscape:pageshadow="2"
     inkscape:window-width="1920"
     inkscape:window-height="1001"
     id="namedview817"
     showgrid="false"
     inkscape:zoom="0.60466317"
     inkscape:cx="740"
     inkscape:cy="643.33337"
     inkscape:window-x="-9"
     inkscape:window-y="-9"
     inkscape:window-maximized="1"
     inkscape:current-layer="g825" />
  <g
     id="g825"
     transform="translate(-1174.2074,410.1457)">
    <g
       id="g854"
       transform="translate(1174.175,-410.149)">
      <path
         inkscape:connector-curvature="0"
         id="path839"
         d="m 121.33333,1284.0209 c -16.96278,-3.6923 -23.183987,-5.9117 -33.740809,-12.0369 -5.275886,-3.0611 -10.889956,-6.2598 -12.47571,-7.1081 -7.5126,-4.0193 -24.088958,-19.9644 -32.098187,-30.8759 -9.825488,-13.3859 -19.008327,-32.8804 -21.52202,-45.6896 -1.845947,-9.4066 -9.54733,-27.0158 -16.7175828,-38.2247 L 0,1142.6149 v -33.1963 c 0,-22.2868 0.46644781,-33.3518 1.4193448,-33.6695 0.7806397,-0.2602 1.7041429,-2.8602 2.0522293,-5.7777 0.6554555,-5.4939 20.0217219,-203.03239 43.1992389,-440.63805 7.332219,-75.16667 15.15455,-155.26667 17.382958,-178 23.279204,-237.48526 28.20603,-288.07485 30.579881,-314.00001 1.510831,-16.5 3.706117,-34.8 4.878413,-40.666671 C 108.36145,52.380588 148.41049,16.082142 202,3.7767242 L 215.33333,0.71507599 726,0.29066511 c 376.6719,-0.31304891 513.9903,-0.0251023 523.3333,1.09739129 17.9901,2.1613626 32.2859,5.7953533 46.0584,11.7079586 38.5596,16.55395 66.8908,48.126083 74.4726,82.991713 1.1856,5.451752 10.8626,90.312272 21.5046,188.578942 10.6422,98.26667 23.2331,214.06668 27.9799,257.33334 20.5723,187.51025 40.0735,366.11851 48.6236,445.33335 5.0659,46.93334 9.8501,91.03334 10.6319,98.00004 1.7606,15.6892 1.8109,35.047 0.1133,43.5649 -0.7053,3.5393 -1.8611,9.7351 -2.5681,13.7684 -1.5972,9.1116 -9.3738,27.8515 -15.5098,37.3755 -2.5418,3.9455 -5.0076,9.3 -5.4792,11.899 -0.4717,2.599 -3.4189,10.5794 -6.5493,17.7341 -12.1065,27.6697 -32.8547,49.5425 -59.6252,62.8575 -8.2421,4.0994 -19.7857,8.8066 -25.6524,10.4604 l -10.6667,3.0068 -609.99997,0.2439 c -589.06412,0.2355 -610.38897,0.1593 -621.33333,-2.223 z"
         style="fill:#9ea0a1;stroke-width:1.33333337" />
      <path
         inkscape:connector-curvature="0"
         id="path837"
         d="m 124,1284.0735 c -20.10932,-5.4584 -27.807412,-8.3202 -36,-13.3829 -4.766667,-2.9457 -9.330559,-5.3561 -10.141981,-5.3565 -3.588751,0 -25.733828,-21.0551 -34.082108,-32.4017 -9.84471,-13.3806 -18.883118,-32.7953 -21.22831,-45.599 -0.805926,-4.4 -3.750634,-12.8 -6.543794,-18.6667 C 5.1219147,1145.8107 3.0231252,1140.3676 1.8655829,1132 0.28154087,1120.5494 0.75187345,1087.7463 2.6207207,1079.3334 3.4352331,1075.6667 9.7862691,1014.4667 16.734135,943.33336 23.681999,872.20002 32.944941,777.40002 37.318451,732.66669 41.691959,687.93335 50.705355,595.53335 57.34822,527.33335 92.79114,163.4531 98.805488,103.56689 100.74819,95.190138 c 9.6632,-41.666938 46.5443,-76.322264 94.28984,-88.5994609 26.7066,-6.86728243 -0.23939,-6.54183422 541.62864,-6.54168277 542.92273,1.5175e-4 508.71503,-0.41838554 536.78433,6.56765557 38.1709,9.5002001 73.7879,37.0119951 88.0983,68.0500191 8.5826,18.615055 7.385,8.950378 49.1535,396.666681 31.2413,289.99784 45.4448,421.27669 46.5951,430.66667 0.7188,5.86667 5.5141,49.36667 10.6564,96.66667 5.1422,47.30001 9.9562,88.09601 10.6977,90.65791 1.9965,6.8987 1.6868,33.3731 -0.4624,39.5078 -0.9956,2.8422 -2.2496,8.1676 -2.7865,11.8343 -1.1743,8.0193 -11.1795,31.9986 -16.5894,39.7593 -2.137,3.0657 -4.291,7.9281 -4.7868,10.8054 -1.5656,9.0879 -12.0024,30.7294 -20.4882,42.4842 -18.1338,25.1191 -42.4676,40.557 -79.1808,50.2339 -10.3035,2.7158 -10.6228,2.7171 -616.00006,2.5968 C 164.01248,1286.4322 132.21815,1286.3042 124,1284.0735 Z M 580.15525,742.78762 c 28.26154,-9.64604 33.15674,-11.79307 39.11119,-17.15409 7.95899,-7.16579 15.17951,-16.21324 18.03375,-22.5967 6.30957,-14.11116 14.56912,-71.17496 17.41556,-120.32105 1.35385,-23.37539 -0.22612,-60.48109 -3.24632,-76.23998 -1.0742,-5.60497 -5.32727,-20.60497 -9.45127,-33.33333 -10.95832,-33.8219 -11.05705,-45.23491 -0.52483,-60.66477 8.83663,-12.94577 31.69078,-27.52458 57.7392,-36.83222 16.09328,-5.75047 18.71827,-6.53663 43.43414,-13.0082 19.31681,-5.05788 28.78472,-8.92267 36.15068,-14.75662 8.57153,-6.78877 8.72382,-7.51957 9.65302,-46.32133 0.46242,-19.30904 1.81379,-43.59611 3.00307,-53.97126 2.59869,-22.6707 1.98373,-37.78732 -1.89371,-46.54993 -6.11001,-13.80803 -31.94166,-35.20148 -85.84528,-71.09597 -47.39542,-31.560686 -72.34714,-42.615054 -99.81909,-44.222902 -16.08417,-0.941356 -24.18821,0.480392 -55.53745,9.743317 -41.46659,12.252345 -51.03374,18.246335 -73.98879,46.355295 -22.82965,27.9554 -36.15037,50.75024 -45.68763,78.18213 -5.45197,15.6814 -23.54677,87.10868 -26.0681,102.901 -2.39272,14.98675 -1.28343,18.7058 8.46949,28.39511 l 8.23045,8.17677 21.33334,6.36581 c 62.17133,18.55178 98.03705,35.70916 119.99124,57.40124 14.42144,14.24926 18.21446,27.53362 12.73092,44.58749 -4.99743,15.54201 -5.03127,15.58042 -39.67646,45.0275 -11.43814,9.72198 -21.06708,14.3507 -37.35778,17.95822 -3.49503,0.77397 -29.63955,1.80762 -58.09894,2.29704 l -51.74436,0.88982 -2.62572,3.33334 c -2.26786,2.87904 -2.52272,4.69621 -1.86996,13.33333 0.41567,5.5 1.2705,20.53047 1.89963,33.40104 1.49597,30.60443 3.86643,39.40176 18.21396,67.5963 6.06337,11.91521 12.84149,24.21521 15.06249,27.33333 2.22102,3.11813 6.06275,8.66933 8.5372,12.336 2.47446,3.66667 7.44774,9.57828 11.05172,13.13692 10.20174,10.07334 34.08952,21.01007 55.88606,25.58676 5.86666,1.23186 17.86666,5.2726 26.66666,8.97947 30.14104,12.69641 33.92899,12.93004 60.82192,3.75112 z M 798.24861,627.1427 c 20.65672,-16.08788 38.2364,-31.54668 58.81076,-51.71565 20.87051,-20.45925 20.8795,-20.48488 7.24524,-20.66665 -3.86578,-0.0516 -17.66578,-2.23887 -30.66666,-4.86072 -27.91226,-5.629 -46.38403,-6.64904 -53.16807,-2.93604 -5.37397,2.94125 -9.16405,10.79491 -11.76236,24.37341 -3.504,18.31163 -2.48804,31.79871 3.41463,45.32963 2.9844,6.84128 11.06364,20.66667 12.07713,20.66667 0.53055,0 6.85275,-4.58579 14.04933,-10.19065 z"
         style="fill:#979a9b;stroke-width:1.33333337" />
      <g
         id="g844">
        <path
           style="fill:#2db8d1;stroke-width:1.33333337"
           d="m 115.91642,1281.4734 c -9.21263,-2.7314 -19.712635,-6.6827 -23.333332,-8.7807 -3.620699,-2.098 -9.332217,-5.1871 -12.692263,-6.8648 -9.520408,-4.7535 -27.748064,-21.6049 -36.350397,-33.6057 -9.204972,-12.8416 -19.045513,-34.3625 -20.307863,-44.4126 -0.493452,-3.9286 -1.966364,-8.9429 -3.273137,-11.1429 C 14.111855,1166.8221 6.6010945,1147.6145 4.0819423,1136.0625 1.0090468,1121.9711 0.36400895,1096.9421 2.6780677,1081.5888 4.0777639,1072.302 19.182669,919.1659 57.34822,527.33335 92.79114,163.4531 98.805488,103.56689 100.74819,95.190138 112.53807,44.353154 162.31041,6.8063768 224.91161,1.5249311 245.96484,-0.2512573 1228.7143,-0.40446226 1244.6667,1.3659572 c 63.1391,7.0072993 110.482,42.2632158 123.4969,91.9673788 2.4393,9.315864 11.3729,88.699774 42.5392,378.000014 5.1351,47.66666 17.4064,161.36667 27.2696,252.66667 9.8633,91.3 21.8725,202.6 26.6873,247.33334 10.7332,99.72004 12.1966,112.09474 13.9528,117.99124 2.097,7.0395 1.765,34.09 -0.4802,39.1406 -1.0274,2.3108 -2.5812,8.0719 -3.4531,12.8023 -1.7999,9.7652 -11.4416,32.6509 -16.6112,39.4285 -1.8965,2.4866 -4.0053,7.3972 -4.686,10.9125 -2.0199,10.43 -10.4743,28.25 -19.3467,40.7781 -16.64,23.4965 -40.4674,39.7757 -71.7752,49.0377 l -17.5934,5.2048 -606.00003,-0.095 -606,-0.095 z M 589.9588,750.65591 c 9.97052,-2.03334 19.83992,-8.60064 34.31643,-22.83484 9.22746,-9.07302 14.02948,-14.95389 16.35076,-20.02424 6.48848,-14.17272 11.83676,-48.25167 16.91738,-107.79681 1.88354,-22.07493 0.59747,-74.12959 -2.23998,-90.66667 -1.19536,-6.96667 -5.85848,-23.46667 -10.36248,-36.66667 -7.30166,-21.39909 -8.19372,-25.15596 -8.23168,-34.66667 -0.0368,-9.23617 0.4891,-11.71596 3.92186,-18.49092 5.17343,-10.21037 15.51788,-19.43329 32.9033,-29.336 17.79089,-10.13367 34.83333,-16.13303 70.46561,-24.8056 28.33381,-6.8962 44.33859,-17.02113 46.76653,-29.58544 0.61454,-3.18012 1.14347,-19.12656 1.1754,-35.43654 0.034,-17.36877 0.94148,-38.08356 2.19039,-50 2.9172,-27.8344 2.16271,-42.11772 -2.72984,-51.67884 -7.6656,-14.98031 -31.88032,-34.96825 -84.57803,-69.81459 -34.08138,-22.53631 -46.36662,-29.612944 -62.63832,-36.08139 -20.19209,-8.026905 -26.99449,-9.379125 -46.8528,-9.313663 -17.94565,0.05916 -18.0785,0.08253 -44,7.741669 C 504.39543,105.65859 495.46252,111.2763 469.37219,144 c -21.49159,26.95575 -33.84166,48.60926 -43.34659,76.00001 -5.89451,16.98648 -23.82363,88.34554 -26.07896,103.796 -2.05043,14.04676 -0.74969,18.87275 7.58541,28.14339 7.85627,8.73806 11.32566,10.4379 36.46795,17.86757 52.90624,15.63407 77.02923,26.29109 102.43917,45.25548 20.08108,14.98725 27.98368,27.32924 26.52826,41.4309 -1.14036,11.049 -8.16586,26.57945 -14.05322,31.06581 -2.70281,2.05964 -7.96869,6.45141 -11.70194,9.75949 -25.55672,22.64612 -24.75075,22.07584 -37.3626,26.43646 -15.95054,5.515 -31.9706,6.88561 -80.65071,6.90017 -23.04808,0.007 -39.66364,0.56089 -42,1.40037 -2.12609,0.76394 -4.91861,2.83076 -6.2056,4.59294 -2.16301,2.96169 -2.24511,5.61453 -1.08549,35.08184 1.70365,43.29188 3.10108,49.02653 20.04757,82.26959 16.47483,32.31782 24.03841,44.60256 32.94523,53.50936 10.86458,10.86459 32.38632,20.91219 55.75277,26.02867 6.59272,1.44357 19.19272,5.69854 28,9.45548 23.85171,10.17446 25.21028,10.45236 47.34656,9.68432 10.63333,-0.36892 22.3148,-1.2788 25.9588,-2.02194 z M 864,693.97791 c 19.20379,-6.91204 28.54915,-14.33443 58.62615,-46.56279 35.66057,-38.2113 42.70718,-48.05284 42.70718,-59.64628 0,-7.303 -4.35022,-16.09697 -10.45305,-21.13084 -10.24864,-8.45351 -27.56811,-12.30053 -65.7664,-14.60811 -22.06379,-1.33288 -35.72296,-3.17626 -66.44721,-8.96745 -5.5,-1.03669 -16.9,-1.99984 -25.33334,-2.14033 -18.17193,-0.30272 -22.83514,1.5296 -27.55262,10.8262 -7.16607,14.12194 -9.11283,48.21293 -3.66703,64.21537 4.43747,13.03944 24.82025,44.10939 41.88811,63.85099 6.51129,7.53131 11.02397,11.33285 17.39518,14.65393 8.09631,4.2203 9.19203,4.44391 18.60303,3.79652 5.91815,-0.4071 14.08185,-2.15708 20,-4.28721 z"
           id="path835"
           inkscape:connector-curvature="0" />
      </g>
      <path
         inkscape:connector-curvature="0"
         id="path833"
         d="m 115.91642,1281.4734 c -9.21263,-2.7314 -19.712635,-6.6827 -23.333332,-8.7807 -3.620699,-2.098 -9.332217,-5.1871 -12.692263,-6.8648 -9.520408,-4.7535 -27.748064,-21.6049 -36.350397,-33.6057 -9.095784,-12.6893 -19.012603,-34.2689 -20.337363,-44.2555 -1.15951,-8.7408 0.118627,-8.4674 7.73158,1.654 19.186727,25.5087 57.322039,45.3477 94.206625,49.0088 8.97276,0.8906 112.39086,1.3702 295.33333,1.3697 l 281.5254,-8e-4 0.30316,-33.6659 c 0.16673,-18.5162 0.66761,-37.0465 1.11305,-41.1785 l 0.80988,-7.5128 -59.67096,-66.4872 c -32.81902,-36.568 -78.6199,-87.6717 -101.77972,-113.56384 -39.82268,-44.52076 -42.3259,-47.0455 -46.10874,-46.50483 -9.43367,1.34829 -9.5699,1.1214 -40.67766,-67.75197 -7.94932,-17.6 -16.02929,-35.21018 -17.95549,-39.13374 -5.05372,-10.29411 -22.35372,-48.61147 -28.49985,-63.12365 -16.43235,-38.79992 -24.63748,-72.30019 -27.5321,-112.40929 -0.47632,-6.6 -2.04357,-20.4 -3.4828,-30.66666 -3.63966,-25.96354 -5.23965,-60.78087 -5.0549,-110.00001 0.0987,-26.27564 -0.46655,-47.24145 -1.50959,-56 -2.07417,-17.41699 -0.93477,-60.59572 1.95271,-74.00031 1.10573,-5.13316 5.35904,-17.73302 9.4518,-27.99969 9.33149,-23.40807 12.87357,-38.98564 17.28116,-76 5.65653,-47.50275 9.19132,-63.07154 22.20776,-97.81262 14.53477,-38.79356 27.61448,-62.23083 44.81838,-80.309186 20.48939,-21.530845 44.02591,-36.500156 63.66724,-40.492592 12.25152,-2.490331 45.2822,-4.720804 69.77274,-4.711565 15.1068,0.0057 25.3288,0.910849 44.89393,3.975325 31.24068,4.89321 43.84331,5.002883 66.66667,0.580157 24.87448,-4.82019 31.51534,-5.199742 44.66666,-2.552886 6.44414,1.296958 22.26379,2.713133 36.67052,3.282745 28.06703,1.109712 22.81708,-0.23972 57.9257,14.889073 l 16.59621,7.151541 18.73712,17.773147 c 19.46576,18.464301 22.24285,22.091921 24.79377,32.387221 0.83952,3.3882 4.22646,10.28821 7.52655,15.33334 9.95612,15.2208 10.13533,15.94535 9.57808,38.72593 L 928.66667,202.4393 1042,284.1001 c 62.3333,44.91344 145.4333,104.78086 184.6667,133.03868 39.2333,28.25783 77.0333,55.66543 84,60.90577 6.9666,5.24033 33.6666,24.68438 59.3333,43.209 25.6667,18.52462 47.0857,34.07082 47.598,34.54713 1.0944,1.01771 1.4055,3.70577 17.0731,147.53267 6.6305,60.86667 14.1132,128.96667 16.6282,151.33334 2.5151,22.36667 9.143,82.96667 14.7288,134.66667 5.5858,51.70004 10.8646,95.44084 11.7306,97.20184 2.034,4.136 2.1762,41.1566 0.1633,42.5135 -0.7763,0.5232 -2.154,5.0712 -3.0617,10.1066 -1.9463,10.7969 -10.3644,31.7055 -16.1516,40.1171 -2.2487,3.2683 -4.6456,8.8191 -5.3266,12.335 -2.02,10.431 -10.4741,28.2506 -19.3468,40.7792 -16.64,23.4965 -40.4674,39.7757 -71.7752,49.0377 l -17.5934,5.2048 -606.00003,-0.095 -606,-0.095 z M 589.9588,750.65591 c 9.97052,-2.03334 19.83992,-8.60064 34.31643,-22.83484 9.22746,-9.07302 14.02948,-14.95389 16.35076,-20.02424 6.48848,-14.17272 11.83676,-48.25167 16.91738,-107.79681 1.88354,-22.07493 0.59747,-74.12959 -2.23998,-90.66667 -1.19536,-6.96667 -5.85848,-23.46667 -10.36248,-36.66667 -7.30166,-21.39909 -8.19372,-25.15596 -8.23168,-34.66667 -0.0368,-9.23617 0.4891,-11.71596 3.92186,-18.49092 5.17343,-10.21037 15.51788,-19.43329 32.9033,-29.336 17.79089,-10.13367 34.83333,-16.13303 70.46561,-24.8056 28.33381,-6.8962 44.33859,-17.02113 46.76653,-29.58544 0.61454,-3.18012 1.14347,-19.12656 1.1754,-35.43654 0.034,-17.36877 0.94148,-38.08356 2.19039,-50 2.9172,-27.8344 2.16271,-42.11772 -2.72984,-51.67884 -7.6656,-14.98031 -31.88032,-34.96825 -84.57803,-69.81459 -34.08138,-22.53631 -46.36662,-29.612944 -62.63832,-36.08139 -20.19209,-8.026905 -26.99449,-9.379125 -46.8528,-9.313663 -17.94565,0.05916 -18.0785,0.08253 -44,7.741669 C 504.39543,105.65859 495.46252,111.2763 469.37219,144 c -21.49159,26.95575 -33.84166,48.60926 -43.34659,76.00001 -5.89451,16.98648 -23.82363,88.34554 -26.07896,103.796 -2.05043,14.04676 -0.74969,18.87275 7.58541,28.14339 7.85627,8.73806 11.32566,10.4379 36.46795,17.86757 52.90624,15.63407 77.02923,26.29109 102.43917,45.25548 20.08108,14.98725 27.98368,27.32924 26.52826,41.4309 -1.14036,11.049 -8.16586,26.57945 -14.05322,31.06581 -2.70281,2.05964 -7.96869,6.45141 -11.70194,9.75949 -25.55672,22.64612 -24.75075,22.07584 -37.3626,26.43646 -15.95054,5.515 -31.9706,6.88561 -80.65071,6.90017 -23.04808,0.007 -39.66364,0.56089 -42,1.40037 -2.12609,0.76394 -4.91861,2.83076 -6.2056,4.59294 -2.16301,2.96169 -2.24511,5.61453 -1.08549,35.08184 1.70365,43.29188 3.10108,49.02653 20.04757,82.26959 16.47483,32.31782 24.03841,44.60256 32.94523,53.50936 10.86458,10.86459 32.38632,20.91219 55.75277,26.02867 6.59272,1.44357 19.19272,5.69854 28,9.45548 23.85171,10.17446 25.21028,10.45236 47.34656,9.68432 10.63333,-0.36892 22.3148,-1.2788 25.9588,-2.02194 z M 864,693.97791 c 19.20379,-6.91204 28.54915,-14.33443 58.62615,-46.56279 35.66057,-38.2113 42.70718,-48.05284 42.70718,-59.64628 0,-7.303 -4.35022,-16.09697 -10.45305,-21.13084 -10.24864,-8.45351 -27.56811,-12.30053 -65.7664,-14.60811 -22.06379,-1.33288 -35.72296,-3.17626 -66.44721,-8.96745 -5.5,-1.03669 -16.9,-1.99984 -25.33334,-2.14033 -18.17193,-0.30272 -22.83514,1.5296 -27.55262,10.8262 -7.16607,14.12194 -9.11283,48.21293 -3.66703,64.21537 4.43747,13.03944 24.82025,44.10939 41.88811,63.85099 6.51129,7.53131 11.02397,11.33285 17.39518,14.65393 8.09631,4.2203 9.19203,4.44391 18.60303,3.79652 5.91815,-0.4071 14.08185,-2.15708 20,-4.28721 z M 1.5438596,1089.3334 c 0,-1.8334 0.3026316,-2.5834 0.6725147,-1.6667 0.369883,0.9167 0.369883,2.4167 0,3.3333 -0.3698831,0.9167 -0.6725147,0.1667 -0.6725147,-1.6666 z M 250.33333,0.45029241 c 0.91667,-0.36988305 2.41667,-0.36988305 3.33334,0 C 254.58333,0.82017546 253.83333,1.122807 252,1.122807 c -1.83333,0 -2.58333,-0.30263154 -1.66667,-0.67251459 z m 18.02778,0.0774853 c 0.44306,-0.44305556 1.59305,-0.49042399 2.55556,-0.10526321 1.06364,0.42563518 0.7477,0.7415771 -0.80556,0.8055556 -1.40555,0.057895 -2.19306,-0.25723686 -1.75,-0.70029239 z m 6.62334,-0.11055134 c 1.27479,-0.33372349 3.67479,-0.3458319 5.33334,-0.0269076 1.65854,0.3189243 0.61554,0.59197079 -2.31779,0.60676998 -2.93333,0.0147992 -4.29033,-0.24613889 -3.01555,-0.57986238 z m 14.70999,0.11055134 c 0.44307,-0.44305556 1.59305,-0.49042399 2.55556,-0.10526321 1.06364,0.42563518 0.74771,0.7415771 -0.80556,0.8055556 -1.40555,0.057895 -2.19305,-0.25723686 -1.75,-0.70029239 z m 5.97223,-0.0774853 c 0.91666,-0.36988305 2.41666,-0.36988305 3.33333,0 0.91667,0.36988305 0.16667,0.67251459 -1.66667,0.67251459 -1.83333,0 -2.58333,-0.30263154 -1.66666,-0.67251459 z m 11.3611,0.0774853 c 0.44307,-0.44305556 1.59306,-0.49042399 2.55556,-0.10526321 1.06364,0.42563518 0.74771,0.7415771 -0.80556,0.8055556 -1.40554,0.057895 -2.19305,-0.25723686 -1.75,-0.70029239 z m 5.33334,0 c 0.44306,-0.44305556 1.59305,-0.49042399 2.55556,-0.10526321 1.06364,0.42563518 0.7477,0.7415771 -0.80556,0.8055556 -1.40555,0.057895 -2.19306,-0.25723686 -1.75,-0.70029239 z m 5.97222,-0.0774853 c 0.91667,-0.36988305 2.41667,-0.36988305 3.33334,0 C 322.58333,0.82017546 321.83333,1.122807 320,1.122807 c -1.83333,0 -2.58333,-0.30263154 -1.66667,-0.67251459 z m 7.97463,0.008459 c 0.90271,-0.36523081 2.70271,-0.3874632 4,-0.0494053 1.29729,0.33805789 0.55871,0.63688309 -1.64129,0.66405609 -2.2,0.027173 -3.26142,-0.24941997 -2.35871,-0.61465079 z m 21.39395,-0.1034132 c 3.13605,-0.28166029 7.93605,-0.27769782 10.66666,0.008805 2.73062,0.2865033 0.16476,0.51695261 -5.7019,0.5121096 -5.86667,-0.004843 -8.10082,-0.23925479 -4.96476,-0.5209146 z m 23.96476,-0.0092 c 4.58333,-0.26036102 12.08333,-0.26036102 16.66666,0 4.58334,0.26036103 0.83334,0.47338369 -8.33333,0.47338369 -9.16667,0 -12.91667,-0.21302266 -8.33333,-0.47338369 z M 399,0.41423334 c 1.28333,-0.33537007 3.38333,-0.33537007 4.66667,0 1.28333,0.33537007 0.23333,0.60976376 -2.33334,0.60976376 -2.56666,0 -3.61666,-0.27439369 -2.33333,-0.60976376 z m 16.66667,-0.0709081 c 5.31666,-0.25308254 14.01666,-0.25308254 19.33333,0 5.31667,0.25308254 0.96667,0.46015008 -9.66667,0.46015008 -10.63333,0 -14.98333,-0.20706754 -9.66666,-0.46015008 z m 227.8922,-0.009951 C 752.21625,0.14520286 930.41625,0.1451963 1039.5589,0.33335996 1148.7015,0.52152307 1059.8,0.67548171 842,0.67548974 624.2,0.67549778 534.90149,0.52154569 643.55887,0.33337424 Z"
         style="fill:#7a8285;stroke-width:1.33333337" />
      <path
         inkscape:connector-curvature="0"
         id="path831"
         d="m 131.82739,1286.0496 c -0.34257,-0.3425 -8.09387,-2.7619 -17.22512,-5.3763 -9.53412,-2.7298 -19.440495,-6.5331 -23.268937,-8.9336 -3.666666,-2.2991 -9.168065,-5.4311 -12.22533,-6.9599 -9.447334,-4.7244 -25.540364,-19.5271 -34.626019,-31.8498 -9.453855,-12.822 -19.592528,-34.5442 -21.205675,-45.4334 -1.220008,-8.2353 0.152699,-7.8546 7.658336,2.1241 19.186727,25.5087 57.322039,45.3477 94.206625,49.0088 8.97297,0.8906 112.49161,1.3705 295.63333,1.3705 H 702.6 l -0.3,-14.3333 c -0.165,-7.8833 -0.0464,-24.8333 0.26347,-37.6667 0.43192,-17.8863 0.76728,-21.3101 1.43653,-14.6666 l 0.87307,8.6666 0.17,-10 c 0.0935,-5.5 -0.55295,-11.5799 -1.43654,-13.5109 -0.8836,-1.931 -35.21424,-40.931 -76.2903,-86.6666 -41.07608,-45.7357 -86.37608,-96.23835 -100.66667,-112.22814 -24.33493,-27.22842 -26.2366,-29.03634 -29.98289,-28.50483 -9.4365,1.3388 -9.57099,1.11476 -40.67766,-67.75617 -7.94932,-17.6 -16.02929,-35.21018 -17.95549,-39.13374 -5.05372,-10.29411 -22.35372,-48.61147 -28.49985,-63.12365 -12.79867,-30.22012 -20.93926,-58.50374 -24.69972,-85.81667 -2.36026,-17.14296 -3.95187,-43.24808 -2.27168,-37.25928 0.61722,2.2 1.19321,3.25 1.27998,2.33333 0.36786,-3.88647 2.3631,-1.13475 4.35052,6 4.526,16.24808 19.94046,53.73948 37.14023,90.33334 3.10212,6.6 7.91892,16.89594 10.704,22.87989 l 5.06379,10.87988 19.11628,-4.00127 c 10.51394,-2.20069 29.39624,-6.62022 41.96064,-9.82118 l 22.84437,-5.81992 9.82229,2.78221 c 8.76695,2.48329 12.11444,2.69976 31.15563,2.01473 11.73333,-0.42212 24.03333,-1.4997 27.33333,-2.39464 3.3,-0.89494 10.2,-4.45032 15.33334,-7.90085 9.85202,-6.62233 29.07396,-25.6778 33.42269,-33.13321 1.72832,-2.96303 5.43219,-5.87174 11.24397,-8.8301 9.18152,-4.67364 13.21739,-8.42495 22.95287,-21.33455 7.19849,-9.54546 20.88251,-22.66385 33.72961,-32.33541 16.32712,-12.29137 30.82142,-14.22627 40.26987,-5.37579 l 2.95236,2.76551 8.89484,-5.79521 8.89484,-5.79522 2.54812,3.27423 c 1.40147,1.80083 8.07023,11.06505 14.81948,20.58717 15.76581,22.2431 29.9302,36.74486 38.86284,39.78851 17.43064,5.93921 42.74551,-0.4478 63.44393,-16.00708 8.91392,-6.70072 51.16396,-50.7708 64.32343,-67.09437 10.04876,-12.46491 12.90768,-18.62928 12.9452,-27.91238 0.0371,-9.1726 -3.72815,-17.19759 -10.98213,-23.40673 -10.10416,-8.64878 -26.62606,-12.8199 -61.08519,-15.42158 -11.31353,-0.85418 -21.29645,-1.9476 -22.18424,-2.42981 -1.08391,-0.58873 0.57603,-3.44341 5.05287,-8.68972 6.09472,-7.14225 6.49082,-8.00769 4.61418,-10.08136 -1.12908,-1.24763 -2.05288,-4.39347 -2.05288,-6.99077 0,-3.7124 1.06935,-5.75175 5,-9.53551 2.75,-2.64723 6.19928,-5.67601 7.66506,-6.73065 2.61069,-1.87839 2.59709,-1.9316 -0.66667,-2.6082 -1.83244,-0.3799 -8.56517,-1.03102 -14.9616,-1.44695 -14.32513,-0.93151 -24.90585,-4.70431 -31.39676,-11.19521 -2.6744,-2.6744 -4.40207,-4.11747 -3.83927,-3.20684 1.85886,3.00769 0.14438,1.72977 -5.19682,-3.87352 -2.89883,-3.04108 -4.3706,-5.0679 -3.2706,-4.50403 1.1,0.56388 -0.7,-1.56899 -4,-4.73968 -3.3,-3.17069 -6.3,-5.84416 -6.66667,-5.94104 -0.36667,-0.0969 -2.46667,-0.93379 -4.66667,-1.8598 -3.39274,-1.42805 -5.11329,-1.31015 -11.33333,0.77667 -4.03333,1.35317 -7.93333,2.26109 -8.66667,2.0176 -0.73333,-0.2435 -0.87065,0.02 -0.30514,0.58546 1.18665,1.18667 -10.02516,8.52738 -13.02426,8.52738 -1.10216,0 -2.00393,0.63541 -2.00393,1.41202 0,0.77662 -0.53713,1.08006 -1.19363,0.67432 -0.65648,-0.40573 -1.53765,0.15886 -1.95814,1.25464 -0.4205,1.09579 -1.70448,1.99235 -2.8533,1.99235 -1.14881,0 -3.54125,0.95172 -5.31654,2.11493 -1.77528,1.1632 -3.94688,1.6705 -4.82576,1.12732 -1.01099,-0.62482 -1.24851,-0.42216 -0.64662,0.55174 0.60147,0.9732 -0.0583,1.53934 -1.79398,1.53934 -1.50995,0 -2.74536,0.63542 -2.74536,1.41203 0,0.77661 -0.6,1.0412 -1.33334,0.58797 C 760.6,489.54679 760,489.84679 760,490.66668 c 0,0.81989 -0.53713,1.15875 -1.19363,0.75301 -0.65648,-0.40573 -1.53765,0.15886 -1.95814,1.25464 -0.4205,1.09579 -1.41215,1.99235 -2.20367,1.99235 -2.55296,0 -8.0268,7.11876 -11.92619,15.51009 -2.08982,4.49723 -4.35138,8.51774 -5.02569,8.93448 -0.67429,0.41675 -6.881,1.16459 -13.79268,1.66187 -7.49604,0.53933 -14.78616,1.89369 -18.06732,3.35656 -3.02536,1.34881 -7.96804,2.84695 -10.98372,3.32917 -9.36999,1.49832 -10.18284,-0.37633 -15.66392,-36.1255 -2.95479,-19.27192 -4.15157,-22.35876 -13.61933,-35.12792 -8.3771,-11.29818 -10.34223,-16.30131 -8.9294,-22.73383 1.01677,-4.62939 2.89265,-6.32896 13.36369,-12.10776 4.4,-2.42828 12.20476,-7.24882 17.34392,-10.7123 13.90077,-9.36826 29.821,-16.93778 43.66624,-20.7618 6.77775,-1.872 19.22317,-5.77182 27.65651,-8.66628 17.17414,-5.89445 26.80302,-7.30477 58,-8.49517 45.42754,-1.73341 60.31948,-3.27336 84.48462,-8.73639 26.6906,-6.03396 33.52992,-8.87662 37.73784,-15.68518 3.12435,-5.0553 3.85498,-15.16979 1.16068,-16.06788 -0.76986,-0.25663 -1.06061,-1.01535 -0.64609,-1.68604 0.41451,-0.6707 0.11825,-1.21946 -0.65836,-1.21946 -0.77661,0 -1.41203,-0.9 -1.41203,-2 0,-1.1 -0.63541,-2 -1.41202,-2 -0.77662,0 -1.0412,-0.6 -0.58798,-1.33333 0.45323,-0.73333 0.18864,-1.33333 -0.58797,-1.33333 -0.77661,0 -1.41203,-0.9 -1.41203,-2.00001 0,-1.1 -0.63541,-2 -1.41202,-2 -0.77662,0 -1.0412,-0.6 -0.58798,-1.33333 0.45323,-0.73333 0.33511,-1.33333 -0.26249,-1.33333 -1.12288,0 -2.89595,-3.91396 -5.43612,-12 -3.14903,-10.02416 -10.20267,-88.12883 -9.07908,-100.53232 0.45832,-5.05944 2.71413,-14.75895 5.01293,-21.55446 3.64883,-10.78632 4.42488,-12.11025 6.11062,-10.42452 1.51241,1.51241 1.8287,5.07316 1.45921,16.42745 l -0.47173,14.4965 L 1042,284.08678 c 62.3333,44.92078 145.4333,104.79418 184.6667,133.052 39.2333,28.25783 77.0333,55.66543 84,60.90577 6.9666,5.24033 33.6666,24.68438 59.3333,43.209 25.6667,18.52462 47.0857,34.07082 47.598,34.54713 1.0947,1.01792 1.4092,3.73605 17.0719,147.53267 6.6296,60.86667 14.146,129.26667 16.7029,152.00001 2.5568,22.73333 9.1452,83.03333 14.6407,134 5.5062,51.06594 10.8914,95.36024 11.9957,98.66664 2.6191,7.8415 2.7793,35.5636 0.2279,39.37 -0.9698,1.4465 -2.4975,6.7499 -3.3951,11.7853 -1.9885,11.155 -10.2503,31.4247 -16.7304,41.0471 -2.628,3.9025 -4.7783,8.5235 -4.7783,10.2689 0,1.7455 -2.714,9.5535 -6.0312,17.3512 -15.358,36.1018 -44.5562,61.3355 -85.3021,73.7198 l -14.6667,4.4577 -607.44153,0.3363 c -334.09285,0.1849 -607.72182,0.056 -608.06438,-0.2867 z M 380.10527,630.11112 c -0.0579,-1.40554 0.25724,-2.19305 0.70029,-1.75 0.44305,0.44306 0.49041,1.59306 0.1052,2.55556 -0.42563,1.06364 -0.74157,0.74771 -0.80555,-0.80556 z m -1.33334,-8 c -0.0579,-1.40554 0.25724,-2.19305 0.7003,-1.75 0.44305,0.44306 0.49041,1.59306 0.1052,2.55556 -0.42563,1.06364 -0.74158,0.74771 -0.80555,-0.80556 z m -1.33333,-10.66666 c -0.0579,-1.40555 0.25724,-2.19306 0.70029,-1.75 0.44306,0.44305 0.49042,1.59305 0.1052,2.55556 -0.42562,1.06364 -0.74157,0.7477 -0.80554,-0.80556 z m -1.33333,-9.33334 c -0.0579,-1.40554 0.25724,-2.19305 0.70029,-1.75 0.44305,0.44306 0.49041,1.59306 0.1052,2.55556 -0.42563,1.06364 -0.74157,0.74771 -0.80555,-0.80556 z m -1.07546,-16.77777 c 0,-3.3 0.26003,-4.65 0.57783,-3 0.31781,1.65 0.31781,4.35 0,6 -0.3178,1.65 -0.57783,0.3 -0.57783,-3 z m -1.11693,-57.33334 c 0,-18.7 0.18753,-26.35 0.41673,-17 0.2292,9.35 0.2292,24.65 0,34 -0.2292,9.35 -0.41673,1.7 -0.41673,-17 z m 482.40491,17.75056 c 1.27478,-0.33372 3.67478,-0.34582 5.33333,-0.0269 1.65855,0.31892 0.61555,0.59197 -2.31779,0.60677 -2.93333,0.0148 -4.29033,-0.24614 -3.01554,-0.57986 z M 520.56933,515.30472 c 2.74011,-2.07301 4.27127,-1.74352 2.81883,0.60659 -0.48339,0.78212 -1.89347,1.40296 -3.13352,1.37964 -1.97953,-0.0372 -1.94113,-0.2796 0.31469,-1.98623 z M 408,503.07075 c -5.65436,-2.03203 -15.282,-9.4318 -18.11937,-13.92651 -3.93902,-6.23979 -4.48722,-20.05803 -1.08058,-27.237 1.99958,-4.21377 19.72786,-19.24056 22.6996,-19.24056 0.72359,0 3.38218,1.56364 5.90798,3.47476 2.5258,1.91112 6.56533,4.32877 8.97672,5.37255 4.12484,1.78545 5.07188,1.62158 16,-2.76837 C 448.77296,446.17925 458.5,442.66717 464,440.94101 l 10,-3.13849 -8.19564,-4.18428 c -4.50761,-2.30135 -16.69103,-10.52919 -27.07425,-18.2841 l -18.8786,-14.09982 0.40758,-5.48386 c 0.65426,-8.80282 4.76791,-10.98044 21.7949,-11.53736 10.44785,-0.34172 15.54732,0.10454 20.6807,1.80951 6.63336,2.20324 48.66594,25.29361 67.12646,36.87555 18.50834,11.61196 28.61269,23.13376 32.14846,36.65833 2.57451,9.8477 1.4993,23.14255 -1.84337,22.79302 -1.19143,-0.12454 -6.09631,1.69624 -10.89973,4.04628 -13.54262,6.62565 -31.02662,9.99402 -47.93318,9.23457 -8.66801,-0.38939 -15.99208,-1.46513 -19.23053,-2.82457 -8.77189,-3.68228 -16.81975,-11.25431 -20.28183,-19.0827 -1.7371,-3.92792 -4.06358,-7.48902 -5.16994,-7.91358 -3.17519,-1.21843 -11.14206,5.79572 -16.70215,14.70482 -7.97609,12.78031 -12.26536,18.13046 -16.76471,20.9112 -3.96572,2.45095 -10.86268,3.19824 -15.18417,1.64522 z m -34.22915,-26.40407 c -0.005,-5.13333 0.23024,-7.39672 0.52479,-5.02973 0.29455,2.36697 0.29939,6.56697 0.0107,9.33333 -0.28864,2.76635 -0.52963,0.82973 -0.53555,-4.3036 z m -1.56033,-20.66667 c 0,-1.83333 0.30264,-2.58333 0.67252,-1.66666 0.36988,0.91666 0.36988,2.41666 0,3.33333 -0.36988,0.91667 -0.67252,0.16667 -0.67252,-1.66667 z m -1.18071,-14.66667 c 0,-3.3 0.26003,-4.65 0.57783,-3 0.31781,1.65 0.31781,4.35 0,6 -0.3178,1.65 -0.57783,0.3 -0.57783,-3 z m 0.0181,-32.66666 c 0.0107,-3.66667 0.26896,-5.00842 0.57542,-2.98167 0.30648,2.02675 0.29828,5.02675 -0.0181,6.66667 -0.31648,1.63992 -0.56723,-0.0184 -0.55723,-3.685 z m 1.1625,-22 c 0,-1.83334 0.30264,-2.58334 0.67252,-1.66667 0.36988,0.91667 0.36988,2.41667 0,3.33333 -0.36988,0.91667 -0.67252,0.16667 -0.67252,-1.66666 z m 313.5305,-0.68343 c 2.05756,-1.82412 5.34106,-3.31657 7.29668,-3.31657 3.3927,0 3.43512,0.0821 0.92565,1.79148 -1.44651,0.9853 -4.73001,2.47776 -7.29668,3.31656 l -4.66667,1.52509 z m 29.51382,-10.62945 c 1.4235,-1.11126 4.1235,-2.00222 6,-1.97991 4.13998,0.0492 1.58246,1.79576 -4.58817,3.13331 -3.77095,0.8174 -3.85179,0.75134 -1.41183,-1.1534 z M 397.4386,298.11111 c -0.0579,-1.40554 0.25724,-2.19305 0.70029,-1.75 0.44306,0.44307 0.49042,1.59306 0.1052,2.55556 -0.42562,1.06364 -0.74157,0.74771 -0.80554,-0.80556 z m 1.33333,-10.66666 c -0.0579,-1.40555 0.25724,-2.19306 0.7003,-1.75 0.44305,0.44306 0.49041,1.59305 0.1052,2.55556 -0.42563,1.06364 -0.74158,0.7477 -0.80555,-0.80556 z m 1.43859,-11.44444 c 0,-1.83334 0.30264,-2.58334 0.67252,-1.66667 0.36988,0.91667 0.36988,2.41667 0,3.33333 -0.36988,0.91667 -0.67252,0.16667 -0.67252,-1.66666 z m 1.33333,-10.66667 c 0,-1.83333 0.30264,-2.58333 0.67252,-1.66667 0.36988,0.91667 0.36988,2.41667 0,3.33334 -0.36988,0.91666 -0.67252,0.16666 -0.67252,-1.66667 z m 1.33334,-10.66667 c 0,-1.83333 0.30264,-2.58333 0.67252,-1.66666 0.36988,0.91666 0.36988,2.41666 0,3.33333 -0.36988,0.91667 -0.67252,0.16667 -0.67252,-1.66667 z m 1.22808,-11.22222 c -0.0579,-1.40555 0.25724,-2.19306 0.70029,-1.75 0.44305,0.44306 0.49041,1.59305 0.1052,2.55556 -0.42563,1.06364 -0.74157,0.7477 -0.80555,-0.80556 z m 2.66666,-14.66667 c -0.0579,-1.40555 0.25724,-2.19305 0.7003,-1.75 0.44305,0.44307 0.49041,1.59305 0.1052,2.55556 -0.42563,1.06364 -0.74158,0.74771 -0.80555,-0.80556 z M 909.4386,122.11111 c -0.0579,-1.40555 0.25724,-2.19305 0.70029,-1.75 0.44306,0.44306 0.49042,1.59306 0.1052,2.55556 -0.42562,1.06364 -0.74157,0.7477 -0.80554,-0.80556 z M 902,110.66667 c -2.10773,-2.2 -3.53224,-4 -3.16557,-4 0.36666,0 2.39117,1.8 4.4989,4 2.10774,2.2 3.53224,4 3.16558,4 -0.36667,0 -2.39118,-1.8 -4.49891,-4 z m -446,-2 c 0.91292,-1.1 1.95985,-2 2.32652,-2 0.36667,0 -0.0803,0.9 -0.99319,2 -0.91292,1.1 -1.95985,2 -2.32652,2 -0.36666,0 0.0803,-0.9 0.99319,-2 z m 6,-7.33333 c 1.32732,-1.466671 2.71331,-2.666671 3.07997,-2.666671 0.36667,0 -0.41932,1.2 -1.74664,2.666671 C 462.00601,102.8 460.62003,104 460.25336,104 c -0.36667,0 0.41932,-1.2 1.74664,-2.66666 z m 425.82992,-3.666671 c -1.65849,-2.114741 -1.61133,-2.161901 0.50341,-0.503406 2.221,1.741825 2.92731,2.836737 1.82992,2.836737 -0.27686,0 -1.32686,-1.049997 -2.33333,-2.333331 z M 480,83.333335 c 0.91292,-1.1 1.95985,-2 2.32652,-2 0.36667,0 -0.0803,0.9 -0.99319,2 -0.91292,1.100001 -1.95985,2.000001 -2.32652,2.000001 -0.36666,0 0.0803,-0.9 0.99319,-2.000001 z m 6.66667,-5.333333 c 0.91292,-1.1 1.95985,-2 2.32652,-2 0.36666,0 -0.0803,0.9 -0.99319,2 -0.91292,1.1 -1.95985,2 -2.32652,2 -0.36667,0 0.0803,-0.9 0.99319,-2 z M 680.33333,59.0809 c 1.28334,-0.335369 3.38334,-0.335369 4.66667,0 1.28333,0.335371 0.23333,0.609764 -2.33333,0.609764 -2.56667,0 -3.61667,-0.274393 -2.33334,-0.609764 z m -15.97222,-1.219788 c 0.44305,-0.443055 1.59305,-0.490424 2.55556,-0.105267 1.06364,0.425635 0.7477,0.741578 -0.80556,0.805557 -1.40555,0.05789 -2.19306,-0.257238 -1.75,-0.700294 z m 33.33333,0 c 0.44305,-0.443055 1.59307,-0.490424 2.55556,-0.105267 1.06364,0.425635 0.74771,0.741578 -0.80556,0.805557 -1.40555,0.05789 -2.19305,-0.257238 -1.75,-0.700294 z m 120,0 c 0.44305,-0.443055 1.59307,-0.490424 2.55556,-0.105267 1.06364,0.425635 0.74771,0.741578 -0.80556,0.805557 -1.40555,0.05789 -2.19305,-0.257238 -1.75,-0.700294 z m -112,-1.333333 c 0.44305,-0.443055 1.59307,-0.490424 2.55556,-0.105267 1.06364,0.425635 0.74771,0.741577 -0.80556,0.805556 -1.40555,0.05789 -2.19305,-0.257237 -1.75,-0.700293 z m 87.97223,-0.174496 c 3.48333,-0.274666 9.18333,-0.274666 12.66666,0 3.48334,0.274664 0.63334,0.49939 -6.33333,0.49939 -6.96667,0 -9.81667,-0.224726 -6.33333,-0.49939 z m -262.6389,-1.158838 c 0.44306,-0.443054 1.59306,-0.490424 2.55556,-0.105266 1.06364,0.425634 0.74771,0.741577 -0.80556,0.805556 -1.40554,0.05789 -2.19305,-0.257238 -1.75,-0.700294 z m 116,0 c 0.44306,-0.443054 1.59306,-0.490424 2.55556,-0.105266 1.06364,0.425634 0.74771,0.741577 -0.80556,0.805556 -1.40554,0.05789 -2.19305,-0.257238 -1.75,-0.700294 z m 66.66667,0 c 0.44305,-0.443054 1.59307,-0.490424 2.55556,-0.105266 1.06364,0.425634 0.74771,0.741577 -0.80556,0.805556 -1.40555,0.05789 -2.19305,-0.257238 -1.75,-0.700294 z m 56,0 c 0.44305,-0.443054 1.59307,-0.490424 2.55556,-0.105266 1.06364,0.425634 0.74771,0.741577 -0.80556,0.805556 -1.40555,0.05789 -2.19305,-0.257238 -1.75,-0.700294 z M 539.66667,53.783627 c 0.91666,-0.369883 2.41666,-0.369883 3.33333,0 0.91667,0.369884 0.16667,0.672514 -1.66667,0.672514 -1.83333,0 -2.58333,-0.30263 -1.66666,-0.672514 z m 99.3611,0.07748 c 0.44306,-0.443055 1.59306,-0.490424 2.55556,-0.105267 1.06364,0.425635 0.74771,0.741577 -0.80556,0.805556 -1.40554,0.05789 -2.19305,-0.257237 -1.75,-0.700293 z m -85.37665,-1.443879 c 1.27479,-0.333724 3.67479,-0.345832 5.33333,-0.02691 1.65855,0.318924 0.61555,0.591971 -2.31778,0.606771 -2.93334,0.0148 -4.29034,-0.24614 -3.01555,-0.579864 z m 76.04332,0.110547 c 0.44305,-0.443055 1.59305,-0.490424 2.55556,-0.105267 1.06364,0.425635 0.74771,0.741577 -0.80556,0.805556 -1.40555,0.05789 -2.19305,-0.257237 -1.75,-0.700293 z m -54.70999,-1.44388 c 1.27479,-0.333724 3.67479,-0.345832 5.33334,-0.02691 1.65854,0.318924 0.61554,0.591971 -2.31779,0.606771 -2.93333,0.0148 -4.29033,-0.24614 -3.01555,-0.579864 z m 40.68222,-0.02487 c 1.65,-0.317804 4.35,-0.317804 6,0 1.65,0.317804 0.3,0.577825 -3,0.577825 -3.3,0 -4.65,-0.260021 -3,-0.577825 z m 121.3036,-0.02133 c 2.36697,-0.29455 6.56697,-0.29939 9.33333,-0.0108 2.76635,0.288633 0.82973,0.529628 -4.3036,0.535544 -5.13333,0.0059 -7.39672,-0.23024 -5.02973,-0.52479 z"
         style="fill:#777e81;stroke-width:1.33333337" />
      <path
         inkscape:connector-curvature="0"
         id="path829"
         d="m 138.01731,1285.6824 c -2.92383,-0.3012 -5.62383,-0.953 -6.00001,-1.4484 -0.37618,-0.4953 -5.91658,-2.2526 -12.31199,-3.9049 -26.351699,-6.8083 -31.434173,-10.0966 -43.67801,-28.2592 -4.227937,-6.2718 -9.066827,-12.6032 -10.753088,-14.0699 -3.703028,-3.2208 -3.132703,-2.1614 6.998576,13 7.983093,11.9467 8.334287,13.8942 1.573691,8.7266 -19.963696,-15.2596 -33.281318,-31.9618 -42.53401,-53.3436 -3.264557,-7.544 -5.945364,-15.1057 -5.957348,-16.804 -0.012,-1.6982 -0.68005,-4.3176 -1.484596,-5.8209 -2.802889,-5.2372 1.23705,-1.8844 7.06412,5.8626 19.186727,25.5087 57.322039,45.3477 94.206625,49.0088 8.97329,0.8907 112.5515,1.3705 295.82332,1.3705 h 282.01538 l -0.74789,-9.6666 c -0.41135,-5.3167 -0.28287,-22.2667 0.28549,-37.6667 l 1.0334,-28 0.47116,28.6667 c 0.25914,15.7666 0.66571,25.3666 0.90348,21.3333 0.8461,-14.3517 -1.66164,-13.0608 26.34262,-13.5608 16.56648,-0.2957 25.11609,-0.9523 26.1718,-2.0098 2.08934,-2.093 -3.84696,-14.7899 -14.8719,-31.8089 -9.08045,-14.0172 -12.51088,-16.6205 -21.90146,-16.6205 -7.76187,0 -13.70326,3.0201 -14.83832,7.5426 l -0.87695,3.494 -1.47571,-3.3625 c -0.81162,-1.8495 -35.0834,-40.7827 -76.15946,-86.5183 -41.07608,-45.7357 -86.37608,-96.23835 -100.66667,-112.22814 -24.33493,-27.22842 -26.2366,-29.03634 -29.98289,-28.50483 -9.4365,1.3388 -9.57099,1.11476 -40.67766,-67.75617 -7.94932,-17.6 -16.02929,-35.21018 -17.95549,-39.13374 -5.05372,-10.29411 -22.35372,-48.61147 -28.49985,-63.12365 -16.75976,-39.57302 -25.3047,-74.98617 -27.44526,-113.74262 l -0.73641,-13.33333 3.29551,14.66666 c 4.89878,21.80207 8.94906,32.97328 23.68748,65.33334 70.71366,155.26079 71.85173,157.63006 76.57916,159.42743 5.63089,2.14085 8.43464,0.0769 19.01064,-13.99403 5.28444,-7.03076 11.62773,-14.32368 14.0962,-16.20646 4.85821,-3.70555 16.48196,-8.56027 20.496,-8.56027 1.3686,0 8.41217,-1.83206 15.65236,-4.07123 11.48798,-3.55288 16.30448,-4.23628 37.83065,-5.36767 13.56667,-0.71305 26.01667,-1.59242 27.66667,-1.95417 7.35096,-1.61167 1.29577,-10.66549 -14.08759,-21.06401 -12.28671,-8.30531 -17.18205,-12.6988 -18.97656,-17.03112 -1.5344,-3.70439 -1.46348,-4.40551 0.59812,-5.91299 1.28643,-0.94065 5.39403,-2.13047 9.128,-2.64401 8.80392,-1.21086 20.38879,-5.23924 41.00469,-14.25854 20.61259,-9.01782 25.29636,-10.13478 48.66667,-11.60569 19.46164,-1.22491 26.30581,-2.87245 39.46799,-9.50087 9.953,-5.01228 15.35541,-9.74077 20.73209,-18.14586 4.12399,-6.44684 4.46659,-7.81056 4.46659,-17.77934 0,-7.00721 -0.7046,-12.15949 -2.00743,-14.67887 -2.59192,-5.01221 -11.8624,-10.41134 -19.72765,-11.4894 -8.60788,-1.17984 -17.13983,3.26094 -32.26492,16.79351 -16.06832,14.37648 -26.35246,19.1578 -31.06667,14.44359 -2.77396,-2.77396 -1.76253,-6.27959 3.49003,-12.09646 2.79952,-3.10028 7.83574,-9.25844 11.19162,-13.68477 10.4796,-13.82241 33.86303,-33.99629 45.71835,-39.44316 8.07,-3.70773 12.7136,-3.19839 19.7378,2.16499 8.25933,6.30648 17.78885,18.79268 32.86268,43.05885 6.93028,11.15648 22.55044,33.63063 34.71149,49.94254 25.12732,33.70385 28.606,39.14346 39.91239,62.411 8.77652,18.0613 16.89103,28.09949 26.38711,32.64264 5.3582,2.56349 24.23174,4.26877 30.32356,2.73983 2.29418,-0.57582 6.51482,-5.05129 12.83909,-13.61429 l 9.42141,-12.75649 2.60352,-15.21993 c 1.43194,-8.37096 3.18794,-16.75707 3.90223,-18.6358 1.86705,-4.91071 1.60431,-12.42582 -0.79633,-22.77718 -3.51136,-15.14068 -1.75623,-18.69749 13.42838,-27.21281 4.4,-2.46745 11.3,-7.87235 15.33334,-12.01087 43.65333,-44.7918 43.65183,-44.78992 67.18893,-82.57476 3.426,-5.5 9.317,-14.8 13.091,-20.66667 14.6725,-22.80829 19.0004,-57.64392 12.258,-98.66667 -2.5382,-15.44349 -4.2472,-17.3409 -15.5935,-17.31261 -7.5954,0.0189 -10.1945,0.91849 -30.293,10.48456 -12.0916,5.75511 -25.28477,11.28588 -29.3181,12.29061 -4.6462,1.15739 -19.30328,2.10542 -40,2.58723 -17.96667,0.41827 -37.53699,1.33991 -43.48961,2.04811 -11.7935,1.40309 -15.17706,0.81685 -15.17706,-2.6296 0,-2.54795 10.58156,-13.4683 13.05047,-13.4683 2.74335,0 1.91879,-7.74424 -0.99032,-9.30114 -1.43359,-0.76723 -9.18941,-1.92414 -17.23516,-2.57088 -20.25373,-1.6281 -26.11489,-4.49607 -42.43705,-20.76528 -18.67894,-18.61834 -23.50411,-19.18079 -46.71538,-5.44554 -6.4199,3.79898 -16.77256,9.39411 -23.00589,12.43362 -16.77435,8.17954 -23.70785,14.02785 -28.72736,24.23108 -2.32203,4.72001 -5.35829,9.02784 -6.74725,9.57294 -1.38896,0.54511 -6.72539,1.05962 -11.85872,1.14335 -5.13334,0.0837 -11.73334,1.07956 -14.66667,2.21295 -11.86169,4.58317 -15.21776,5.1759 -17.33249,3.06118 -1.76766,-1.76766 -4.5944,-16.56917 -6.60248,-34.57228 -1.64874,-14.78129 -4.4964,-21.80132 -13.5217,-33.33333 -11.61321,-14.83872 -11.88734,-21.30794 -1.17408,-27.70696 3.33922,-1.99451 12.79716,-7.85635 21.01768,-13.02632 19.22578,-12.0913 31.72058,-17.90928 48.27974,-22.48063 7.33333,-2.02445 19.1631,-5.71012 26.28838,-8.19037 15.43232,-5.37187 26.4615,-6.8001 61.04495,-7.90502 42.01119,-1.34225 56.55311,-2.86648 81.82269,-8.57634 25.8807,-5.84795 29.25674,-7.19527 35.31272,-14.09264 3.54611,-4.0388 4.19792,-5.84747 4.19792,-11.64847 0,-5.89037 -1.05789,-8.71947 -7.4365,-19.88723 -4.09008,-7.16096 -8.23944,-16.06373 -9.22082,-19.78395 -0.98137,-3.72021 -3.0374,-20.70008 -4.56894,-37.73305 -1.53155,-17.03296 -3.33763,-36.06903 -4.01351,-42.30236 -1.50877,-13.91452 0.91364,-31.40099 5.05119,-36.46256 0.69122,-0.84559 1.89014,-4.23744 2.66428,-7.53744 1.2164,-5.18528 1.37018,-3.88966 1.13258,9.54161 L 928.66667,202.41657 1042,284.08874 c 62.3333,44.9197 145.4333,104.79222 184.6667,133.05004 39.2333,28.25783 77.0333,55.66543 84,60.90577 6.9666,5.24033 33.6666,24.68438 59.3333,43.209 25.6667,18.52462 47.0857,34.07082 47.598,34.54713 1.0947,1.01792 1.4092,3.73605 17.0719,147.53267 6.6296,60.86667 14.146,129.26667 16.7029,152.00001 2.5568,22.73333 9.1444,83.03333 14.6389,134 5.4947,50.96664 10.5714,94.46664 11.2816,96.66664 1.9624,6.0785 2.3054,39.4632 0.4383,42.6667 -0.8548,1.4667 -2.2525,6.5602 -3.1061,11.319 -1.9627,10.9427 -9.9243,30.1428 -17.0868,41.2059 -3.0355,4.6888 -6.0386,10.3888 -6.6734,12.6667 -8.2148,29.4782 -31.3732,58.1478 -59.6433,73.8369 -10.9333,6.0677 -35.9177,14.9715 -42.0105,14.9715 -1.2775,0 -2.5726,0.75 -2.8782,1.6667 -0.4432,1.3298 -122.067,1.6899 -601.77773,1.7816 -330.67222,0.063 -603.61445,-0.1314 -606.53826,-0.4326 z M 690.34436,982.66652 c 10.99343,-1.46676 22.43473,-3.53009 25.42515,-4.58517 7.42821,-2.62083 19.15148,-10.28896 22.77745,-14.89865 2.79373,-3.55165 2.92937,-4.62885 2.07656,-16.49126 -0.50183,-6.98028 -1.31596,-13.12998 -1.8092,-13.66599 -0.49324,-0.53601 -9.57824,-1.28599 -20.18889,-1.6666 -67.91862,-2.43629 -75.95876,-3.72743 -75.95876,-12.19791 0,-4.16874 3.22798,-5.66732 29.61921,-13.75054 12.15268,-3.72218 24.70992,-7.88468 27.90496,-9.25 3.19504,-1.36534 10.15916,-3.57563 15.47583,-4.91175 9.20404,-2.31307 9.66666,-2.61337 9.66666,-6.27488 0,-6.25287 -5.97429,-10.93681 -19.02833,-14.91855 -16.49497,-5.03126 -22.07412,-5.33646 -40.72688,-2.22792 -19.92001,3.31976 -29.36955,2.19858 -37.57812,-4.45862 -1.1,-0.8921 -6.37048,-2.99683 -11.71219,-4.67718 -13.26886,-4.17397 -21.46732,-3.26036 -35.78229,3.98754 -13.18295,6.67472 -17.80773,11.19709 -18.76737,18.35177 l -0.71468,5.32835 7.43396,2.7814 c 4.08866,1.52977 8.8991,3.14913 10.68984,3.59857 4.34722,1.09109 8.62801,5.23461 9.66129,9.35152 1.29749,5.16964 -2.46764,8.11108 -13.80305,10.7834 -8.50163,2.00427 -10.46074,3.00035 -12.61902,6.41596 -3.33229,5.27355 -2.41824,17.85993 1.6816,23.15524 1.51374,1.95512 4.54235,6.13363 6.73023,9.28557 2.18789,3.15194 6.63696,7.41707 9.88683,9.47807 8.64818,5.48452 40.1408,19.72088 48.64818,21.99162 10.70982,2.85858 37.3299,2.6256 61.01103,-0.53399 z M 380.10527,630.11112 c -0.0579,-1.40554 0.25724,-2.19305 0.70029,-1.75 0.44305,0.44306 0.49041,1.59306 0.1052,2.55556 -0.42563,1.06364 -0.74157,0.74771 -0.80555,-0.80556 z m -1.33334,-8 c -0.0579,-1.40554 0.25724,-2.19305 0.7003,-1.75 0.44305,0.44306 0.49041,1.59306 0.1052,2.55556 -0.42563,1.06364 -0.74158,0.74771 -0.80555,-0.80556 z m -1.33333,-10.66666 c -0.0579,-1.40555 0.25724,-2.19306 0.70029,-1.75 0.44306,0.44305 0.49042,1.59305 0.1052,2.55556 -0.42562,1.06364 -0.74157,0.7477 -0.80554,-0.80556 z m -1.33333,-9.33334 c -0.0579,-1.40554 0.25724,-2.19305 0.70029,-1.75 0.44305,0.44306 0.49041,1.59306 0.1052,2.55556 -0.42563,1.06364 -0.74157,0.74771 -0.80555,-0.80556 z m -1.07546,-16.77777 c 0,-3.3 0.26003,-4.65 0.57783,-3 0.31781,1.65 0.31781,4.35 0,6 -0.3178,1.65 -0.57783,0.3 -0.57783,-3 z m -1.11693,-57.33334 c 0,-18.7 0.18753,-26.35 0.41673,-17 0.2292,9.35 0.2292,24.65 0,34 -0.2292,9.35 -0.41673,1.7 -0.41673,-17 z m 33.42045,-28.79674 c -13.79494,-7.43239 -18,-13.16755 -18,-24.54968 0,-8.68232 2.25832,-12.91754 10.9649,-20.56336 9.27994,-8.14935 11.46064,-8.58082 18.30604,-3.62203 8.44545,6.11785 11.64626,6.32283 23.63002,1.51325 5.73782,-2.30281 15.98238,-5.96887 22.76571,-8.14679 7.60484,-2.44168 12.33333,-4.65824 12.33333,-5.78144 0,-1.00186 -4.48986,-4.24337 -9.97748,-7.20336 -13.52069,-7.29296 -42.38017,-28.98346 -43.97132,-33.0484 -2.8512,-7.28405 4.46626,-10.96061 21.9488,-11.02788 14.38462,-0.0553 17.8984,1.36368 54.14018,21.86439 42.26036,23.90521 53.72237,33.55571 58.51937,49.27071 3.04788,9.98485 2.62973,16.2566 -1.34911,20.23544 -6.61684,6.61684 -21.02216,11.26345 -44.9139,14.48755 -6.932,0.93544 -26.73983,-1.35968 -31.00727,-3.5928 -6.57225,-3.43919 -12.73435,-9.56604 -15.48973,-15.40111 -3.9623,-8.39099 -6.346,-10.97108 -10.13598,-10.97108 -4.49934,0 -14.37585,9.61167 -19.75612,19.22633 -8.9448,15.98462 -18.96881,22.18004 -28.00744,17.31026 z m -33.56248,-22.53659 c -0.005,-5.13333 0.23024,-7.39672 0.52479,-5.02973 0.29455,2.36697 0.29939,6.56697 0.0107,9.33333 -0.28864,2.76635 -0.52963,0.82973 -0.53555,-4.3036 z m -1.56033,-20.66667 c 0,-1.83333 0.30264,-2.58333 0.67252,-1.66666 0.36988,0.91666 0.36988,2.41666 0,3.33333 -0.36988,0.91667 -0.67252,0.16667 -0.67252,-1.66667 z m -1.18071,-14.66667 c 0,-3.3 0.26003,-4.65 0.57783,-3 0.31781,1.65 0.31781,4.35 0,6 -0.3178,1.65 -0.57783,0.3 -0.57783,-3 z m 0.0181,-32.66666 c 0.0107,-3.66667 0.26896,-5.00842 0.57542,-2.98167 0.30648,2.02675 0.29828,5.02675 -0.0181,6.66667 -0.31648,1.63992 -0.56723,-0.0184 -0.55723,-3.685 z m 1.1625,-22 c 0,-1.83334 0.30264,-2.58334 0.67252,-1.66667 0.36988,0.91667 0.36988,2.41667 0,3.33333 -0.36988,0.91667 -0.67252,0.16667 -0.67252,-1.66666 z m 25.22808,-88.55557 c -0.0579,-1.40554 0.25724,-2.19305 0.7003,-1.75 0.44305,0.44307 0.49041,1.59306 0.1052,2.55556 -0.42563,1.06364 -0.74158,0.74771 -0.80555,-0.80556 z m 1.33334,-10.66666 c -0.0579,-1.40555 0.25724,-2.19306 0.70029,-1.75 0.44305,0.44306 0.49041,1.59305 0.1052,2.55556 -0.42563,1.06364 -0.74157,0.7477 -0.80555,-0.80556 z m 1.43865,-11.44444 c 0,-1.83334 0.30264,-2.58334 0.67252,-1.66667 0.36988,0.91667 0.36988,2.41667 0,3.33333 -0.36988,0.91667 -0.67252,0.16667 -0.67252,-1.66666 z m 1.33333,-10.66667 c 0,-1.83333 0.30264,-2.58333 0.67252,-1.66667 0.36988,0.91667 0.36988,2.41667 0,3.33334 -0.36988,0.91666 -0.67252,0.16666 -0.67252,-1.66667 z m 1.33334,-10.66667 c 0,-1.83333 0.30264,-2.58333 0.67252,-1.66666 0.36988,0.91666 0.36988,2.41666 0,3.33333 -0.36988,0.91667 -0.67252,0.16667 -0.67252,-1.66667 z m 1.22808,-11.22222 c -0.0579,-1.40555 0.25724,-2.19306 0.70029,-1.75 0.44305,0.44306 0.49041,1.59305 0.1052,2.55556 -0.42563,1.06364 -0.74157,0.7477 -0.80555,-0.80556 z m 2.66666,-14.66667 c -0.0579,-1.40555 0.25724,-2.19305 0.7003,-1.75 0.44305,0.44307 0.49041,1.59305 0.1052,2.55556 -0.42563,1.06364 -0.74158,0.74771 -0.80555,-0.80556 z M 909.4386,122.11111 c -0.0579,-1.40555 0.25724,-2.19305 0.70029,-1.75 0.44306,0.44306 0.49042,1.59306 0.1052,2.55556 -0.42562,1.06364 -0.74157,0.7477 -0.80554,-0.80556 z M 902,110.66667 c -2.10773,-2.2 -3.53224,-4 -3.16557,-4 0.36666,0 2.39117,1.8 4.4989,4 2.10774,2.2 3.53224,4 3.16558,4 -0.36667,0 -2.39118,-1.8 -4.49891,-4 z m -446,-2 c 0.91292,-1.1 1.95985,-2 2.32652,-2 0.36667,0 -0.0803,0.9 -0.99319,2 -0.91292,1.1 -1.95985,2 -2.32652,2 -0.36666,0 0.0803,-0.9 0.99319,-2 z m 6,-7.33333 c 1.32732,-1.466671 2.71331,-2.666671 3.07997,-2.666671 0.36667,0 -0.41932,1.2 -1.74664,2.666671 C 462.00601,102.8 460.62003,104 460.25336,104 c -0.36667,0 0.41932,-1.2 1.74664,-2.66666 z m 425.82992,-3.666671 c -1.65849,-2.114741 -1.61133,-2.161901 0.50341,-0.503406 2.221,1.741825 2.92731,2.836737 1.82992,2.836737 -0.27686,0 -1.32686,-1.049997 -2.33333,-2.333331 z M 480,83.333335 c 0.91292,-1.1 1.95985,-2 2.32652,-2 0.36667,0 -0.0803,0.9 -0.99319,2 -0.91292,1.100001 -1.95985,2.000001 -2.32652,2.000001 -0.36666,0 0.0803,-0.9 0.99319,-2.000001 z m 6.66667,-5.333333 c 0.91292,-1.1 1.95985,-2 2.32652,-2 0.36666,0 -0.0803,0.9 -0.99319,2 -0.91292,1.1 -1.95985,2 -2.32652,2 -0.36667,0 0.0803,-0.9 0.99319,-2 z M 680.33333,59.0809 c 1.28334,-0.335369 3.38334,-0.335369 4.66667,0 1.28333,0.335371 0.23333,0.609764 -2.33333,0.609764 -2.56667,0 -3.61667,-0.274393 -2.33334,-0.609764 z m -15.97222,-1.219788 c 0.44305,-0.443055 1.59305,-0.490424 2.55556,-0.105267 1.06364,0.425635 0.7477,0.741578 -0.80556,0.805557 -1.40555,0.05789 -2.19306,-0.257238 -1.75,-0.700294 z m 33.33333,0 c 0.44305,-0.443055 1.59307,-0.490424 2.55556,-0.105267 1.06364,0.425635 0.74771,0.741578 -0.80556,0.805557 -1.40555,0.05789 -2.19305,-0.257238 -1.75,-0.700294 z m 120,0 c 0.44305,-0.443055 1.59307,-0.490424 2.55556,-0.105267 1.06364,0.425635 0.74771,0.741578 -0.80556,0.805557 -1.40555,0.05789 -2.19305,-0.257238 -1.75,-0.700294 z m -112,-1.333333 c 0.44305,-0.443055 1.59307,-0.490424 2.55556,-0.105267 1.06364,0.425635 0.74771,0.741577 -0.80556,0.805556 -1.40555,0.05789 -2.19305,-0.257237 -1.75,-0.700293 z m 87.97223,-0.174496 c 3.48333,-0.274666 9.18333,-0.274666 12.66666,0 3.48334,0.274664 0.63334,0.49939 -6.33333,0.49939 -6.96667,0 -9.81667,-0.224726 -6.33333,-0.49939 z m -262.6389,-1.158838 c 0.44306,-0.443054 1.59306,-0.490424 2.55556,-0.105266 1.06364,0.425634 0.74771,0.741577 -0.80556,0.805556 -1.40554,0.05789 -2.19305,-0.257238 -1.75,-0.700294 z m 116,0 c 0.44306,-0.443054 1.59306,-0.490424 2.55556,-0.105266 1.06364,0.425634 0.74771,0.741577 -0.80556,0.805556 -1.40554,0.05789 -2.19305,-0.257238 -1.75,-0.700294 z m 66.66667,0 c 0.44305,-0.443054 1.59307,-0.490424 2.55556,-0.105266 1.06364,0.425634 0.74771,0.741577 -0.80556,0.805556 -1.40555,0.05789 -2.19305,-0.257238 -1.75,-0.700294 z m 56,0 c 0.44305,-0.443054 1.59307,-0.490424 2.55556,-0.105266 1.06364,0.425634 0.74771,0.741577 -0.80556,0.805556 -1.40555,0.05789 -2.19305,-0.257238 -1.75,-0.700294 z M 539.66667,53.783627 c 0.91666,-0.369883 2.41666,-0.369883 3.33333,0 0.91667,0.369884 0.16667,0.672514 -1.66667,0.672514 -1.83333,0 -2.58333,-0.30263 -1.66666,-0.672514 z m 99.3611,0.07748 c 0.44306,-0.443055 1.59306,-0.490424 2.55556,-0.105267 1.06364,0.425635 0.74771,0.741577 -0.80556,0.805556 -1.40554,0.05789 -2.19305,-0.257237 -1.75,-0.700293 z m -85.37665,-1.443879 c 1.27479,-0.333724 3.67479,-0.345832 5.33333,-0.02691 1.65855,0.318924 0.61555,0.591971 -2.31778,0.606771 -2.93334,0.0148 -4.29034,-0.24614 -3.01555,-0.579864 z m 76.04332,0.110547 c 0.44305,-0.443055 1.59305,-0.490424 2.55556,-0.105267 1.06364,0.425635 0.74771,0.741577 -0.80556,0.805556 -1.40555,0.05789 -2.19305,-0.257237 -1.75,-0.700293 z m -54.70999,-1.44388 c 1.27479,-0.333724 3.67479,-0.345832 5.33334,-0.02691 1.65854,0.318924 0.61554,0.591971 -2.31779,0.606771 -2.93333,0.0148 -4.29033,-0.24614 -3.01555,-0.579864 z m 40.68222,-0.02487 c 1.65,-0.317804 4.35,-0.317804 6,0 1.65,0.317804 0.3,0.577825 -3,0.577825 -3.3,0 -4.65,-0.260021 -3,-0.577825 z m 121.3036,-0.02133 c 2.36697,-0.29455 6.56697,-0.29939 9.33333,-0.0108 2.76635,0.288633 0.82973,0.529628 -4.3036,0.535544 -5.13333,0.0059 -7.39672,-0.23024 -5.02973,-0.52479 z"
         style="fill:#228b9d;stroke-width:1.33333337" />
      <path
         inkscape:connector-curvature="0"
         id="path827"
         d="m 138.01731,1285.6824 c -2.92383,-0.3012 -5.62383,-0.953 -6.00001,-1.4484 -0.37618,-0.4953 -5.91658,-2.2526 -12.31199,-3.9049 -26.351699,-6.8083 -31.434173,-10.0966 -43.67801,-28.2592 -4.227937,-6.2718 -9.066827,-12.6032 -10.753088,-14.0699 -3.703028,-3.2208 -3.132703,-2.1614 6.998576,13 7.983093,11.9467 8.334287,13.8942 1.573691,8.7266 -20.144266,-15.3976 -33.336922,-32.0088 -42.663215,-53.7181 -6.596453,-15.3549 -7.491311,-21.9031 -1.849931,-13.5371 4.859718,7.2069 26.806827,24.4061 40.666667,31.869 6.6,3.5539 18.9,8.6811 27.333333,11.3939 l 15.333337,4.9324 h 296.5449 296.54492 l -0.24086,-18 c -0.13254,-9.9 0.2223,-18.6847 0.78841,-19.5215 0.69136,-1.022 9.44489,-1.679 26.66221,-2.001 l 25.63294,-0.4795 0.36706,19.3343 0.36708,19.3344 8.66667,0.8441 c 14.75355,1.4371 579.4176,1.246 592.6667,-0.2005 16.4525,-1.7962 35.4428,-7.691 49.8198,-15.4647 11.5724,-6.2572 28.5499,-18.4131 36.6536,-26.244 2.124,-2.0524 3.5224,-2.8475 3.1078,-1.7667 -12.9327,33.7018 -31.2248,55.7647 -59.0259,71.1936 -10.9333,6.0677 -35.9177,14.9715 -42.0105,14.9715 -1.2775,0 -2.5726,0.75 -2.8782,1.6667 -0.4432,1.3298 -122.067,1.6899 -601.77773,1.7816 -330.67222,0.063 -603.61445,-0.1314 -606.53826,-0.4326 z m 501.94652,-247.0102 c -10.23802,-1.6236 -17.20348,-4.1618 -36.18858,-13.1873 -21.58582,-10.2617 -26.15317,-13.7959 -33.19965,-25.68919 -5.72016,-9.65472 -5.80765,-9.98755 -6.08067,-23.12902 -0.15234,-7.33333 -0.89116,-17.83333 -1.64181,-23.33333 -0.75064,-5.5 -0.87456,-10.49512 -0.27536,-11.10028 0.5992,-0.60515 3.41433,2.39485 6.25585,6.66666 6.3289,9.5146 12.07066,13.44262 35.16639,24.05774 23.36509,10.73892 29.99515,12.37588 50.12497,12.37588 17.48108,0 52.84891,-4.14873 61.55555,-7.22061 6.44457,-2.27378 15.64747,-7.85186 20.63891,-12.5097 2.00901,-1.87473 3.96928,-3.09209 4.35614,-2.70523 1.53027,1.53027 -1.68457,47.15808 -3.65156,51.82608 -2.49445,5.9198 -16.47373,15.3652 -26.61374,17.9823 -17.38844,4.4878 -58.05199,7.9315 -70.44644,5.966 z m 54.70284,-108.10767 c -42.68874,-1.76732 -52,-3.80928 -52,-11.40359 0,-4.18101 3.2183,-5.66609 30.09504,-13.88722 12.4144,-3.79735 24.07162,-7.67103 25.90496,-8.60818 4.61461,-2.35885 25.28804,-7.82192 26.18929,-6.92066 0.40481,0.40481 0.65165,9.60858 0.54852,20.45284 -0.18377,19.3263 -0.79868,22.12641 -4.73781,21.57474 -0.73334,-0.10266 -12.43334,-0.64628 -26,-1.20793 z m -203.0455,-4.23117 c -2.72166,-2.0416 -11.23746,-19.36026 -30.97785,-63 -8.29307,-18.33334 -19.97161,-43.83334 -25.95233,-56.66667 -14.42954,-30.96271 -24.09363,-53.67639 -30.6992,-72.1529 -5.50978,-15.4114 -12.34075,-41.72073 -13.98091,-53.84711 -0.49593,-3.66666 -1.17319,-7.86666 -1.505,-9.33333 -1.00244,-4.43088 2.97245,3.23713 6.62948,12.78905 1.79919,4.69936 8.79185,20.54428 15.53925,35.21095 6.7474,14.66667 21.15268,46.16667 32.01174,70 33.1142,72.67867 38.05037,82.50585 42.24325,84.09997 5.61387,2.1344 8.42643,0.0615 18.99519,-13.9999 5.28444,-7.03076 11.62773,-14.32368 14.0962,-16.20646 4.85821,-3.70555 16.48196,-8.56027 20.496,-8.56027 1.3686,0 8.41217,-1.83206 15.65236,-4.07123 11.48798,-3.55288 16.30448,-4.23628 37.83065,-5.36767 13.56667,-0.71305 26.01667,-1.59242 27.66667,-1.95417 7.35096,-1.61167 1.29577,-10.66549 -14.08759,-21.06401 -12.28671,-8.30531 -17.18205,-12.6988 -18.97656,-17.03112 -1.5344,-3.70439 -1.46348,-4.40551 0.59812,-5.91299 1.28643,-0.94065 5.39403,-2.13047 9.128,-2.64401 8.80392,-1.21086 20.38879,-5.23924 41.00469,-14.25854 20.61259,-9.01782 25.29636,-10.13478 48.66667,-11.60569 11.15187,-0.70189 21.35052,-2.09379 25.33333,-3.45744 16.82643,-5.76115 29.7435,-14.65155 34.7237,-23.8992 1.40216,-2.60367 3.08954,-4.73393 3.74976,-4.73393 1.84648,0 -0.31946,47.56057 -2.52522,55.44956 -5.86278,20.96842 -34.5848,35.2171 -70.9895,35.2171 -11.19183,0 -18.06742,1.82398 -35.6254,9.45079 L 626,825.15502 l 0.22589,18.08918 c 0.13371,10.70706 -0.29156,18.08916 -1.04206,18.08916 -0.69738,0 -4.99903,-1.26364 -9.55923,-2.80808 -11.94085,-4.04414 -21.08648,-2.96935 -35.07108,4.12149 -13.21332,6.69977 -17.85567,11.22887 -18.81109,18.35216 l -0.71042,5.29644 -10.18266,2.36629 c -24.20675,5.62527 -26.98988,7.34092 -40.32412,24.8575 -10.60999,13.93786 -14.18003,16.35782 -18.90406,12.8142 z m 73.23754,-13.647 c -0.41796,-1.08919 -1.16382,-7.33064 -1.65747,-13.8699 l -0.89755,-11.88956 10.22155,3.60787 c 11.54407,4.07468 15.02145,6.52821 16.26293,11.47465 1.25838,5.01382 -2.21405,8.0214 -12.13978,10.51466 -10.4435,2.62332 -10.84318,2.62882 -11.78968,0.16228 z m 312.21884,-19.89442 c -10.87395,-3.88285 -16.6806,-10.92521 -28.68703,-34.79192 -10.69607,-21.26194 -15.55,-28.84316 -35.87351,-56.02975 -15.94512,-21.32965 -25.36242,-35.16777 -42.53006,-62.49512 -5.01866,-7.98868 -11.4188,-16.93633 -14.22256,-19.88369 -4.96438,-5.21864 -5.09772,-5.61647 -5.09772,-15.20802 0,-6.16321 -0.75127,-11.30196 -2.00743,-13.73112 -2.59192,-5.01221 -11.8624,-10.41134 -19.72765,-11.4894 -8.60788,-1.17984 -17.13983,3.26094 -32.26492,16.79351 -16.06832,14.37648 -26.35246,19.1578 -31.06667,14.44359 -2.77396,-2.77396 -1.76253,-6.27959 3.49003,-12.09646 2.79952,-3.10028 7.83574,-9.25844 11.19162,-13.68477 10.4796,-13.82241 33.86303,-33.99629 45.71835,-39.44316 8.07,-3.70773 12.7136,-3.19839 19.7378,2.16499 8.25933,6.30648 17.78885,18.79268 32.86268,43.05885 6.93028,11.15648 22.55044,33.63063 34.71149,49.94254 25.12732,33.70385 28.606,39.14346 39.91239,62.411 8.77652,18.0613 16.89103,28.09949 26.38711,32.64264 5.37258,2.57037 24.23736,4.26736 30.3589,2.73095 2.32802,-0.5843 6.31634,-4.78249 12.24135,-12.88549 4.83357,-6.61036 9.03563,-11.77153 9.33789,-11.46926 1.49811,1.49812 0.45178,20.85542 -1.404,25.97401 -1.14576,3.16022 -2.96282,10.78536 -4.03793,16.94478 -1.07511,6.1594 -2.67677,12.54806 -3.55928,14.19702 -3.23297,6.04087 -15.79649,22.12768 -17.91676,22.94131 -3.85481,1.47923 -22.46927,0.77865 -27.55409,-1.03703 z M 936,788.82167 c 0,-0.95214 0.89351,-4.67653 1.98557,-8.27641 2.54051,-8.37455 2.52206,-14.19093 -0.0807,-25.41347 -3.51136,-15.14068 -1.75623,-18.69749 13.42838,-27.21281 4.4,-2.46745 11.3,-7.87235 15.33334,-12.01087 45.04251,-46.21717 40.44531,-40.44536 72.66671,-91.23255 13.7265,-21.63569 13.9038,-21.88124 13.9576,-19.33404 0.023,1.1045 -0.8596,9.71896 -1.962,19.14326 -3.2124,27.46172 -6.4938,36.33214 -22.8622,61.80192 -5.7567,8.95768 -13.023,20.4404 -16.1473,25.51717 -7.8373,12.73492 -22.55171,30.91752 -34.75564,42.9475 -5.62677,5.54657 -13.53235,13.64657 -17.56793,18 C 952.36339,780.98502 936,791.94374 936,788.82167 Z M 887,524.51144 c -3.12553,-1.37583 -1.67388,-5.28245 4.05047,-10.90048 7.94626,-7.79867 9.51317,-7.45735 8.55125,1.86276 -0.42424,4.11053 -1.03384,7.7362 -1.35467,8.05701 -1.008,1.008 -9.50238,1.74868 -11.24705,0.98071 z M 407.33333,499.20327 c -13.79494,-7.43239 -18,-13.16755 -18,-24.54968 0,-8.68232 2.25832,-12.91754 10.9649,-20.56336 9.27994,-8.14935 11.46064,-8.58082 18.30604,-3.62203 8.44545,6.11785 11.64626,6.32283 23.63002,1.51325 5.73782,-2.30281 15.98238,-5.96887 22.76571,-8.14679 7.60484,-2.44168 12.33333,-4.65824 12.33333,-5.78144 0,-1.00186 -4.48986,-4.24337 -9.97748,-7.20336 -13.52069,-7.29296 -42.38017,-28.98346 -43.97132,-33.0484 -2.8512,-7.28405 4.46626,-10.96061 21.9488,-11.02788 14.38462,-0.0553 17.8984,1.36368 54.14018,21.86439 42.26036,23.90521 53.72237,33.55571 58.51937,49.27071 3.23407,10.59481 2.68243,16.3906 -1.97403,20.74039 -4.24086,3.96156 -19.48566,10.68428 -24.22825,10.68428 -1.56641,0 -12.42739,-5.43271 -24.13551,-12.0727 -11.70812,-6.63998 -21.51974,-11.84044 -21.80361,-11.55657 -0.28387,0.28387 0.18019,5.43983 1.03121,11.45768 1.80691,12.77703 0.87243,15.0364 -5.09461,12.31763 -6.87043,-3.13038 -13.58836,-9.55875 -16.55521,-15.84163 -3.9623,-8.39099 -6.346,-10.97108 -10.13598,-10.97108 -4.49934,0 -14.37585,9.61167 -19.75612,19.22633 -8.9448,15.98462 -18.96881,22.18004 -28.00744,17.31026 z m 274.0669,-17.74492 c -0.77012,-1.439 -1.4134,-3.7058 -1.42951,-5.03735 -0.0499,-4.12053 -4.96063,-13.5422 -11.20101,-21.48987 -11.85294,-15.09576 -12.17536,-21.53557 -1.40046,-27.97141 3.33922,-1.99451 12.79716,-7.85635 21.01768,-13.02632 19.22578,-12.0913 31.72058,-17.90928 48.27974,-22.48063 7.33333,-2.02445 19.1631,-5.71012 26.28838,-8.19037 15.43232,-5.37187 26.4615,-6.8001 61.04495,-7.90502 40.68179,-1.29977 56.54892,-2.90074 79.49995,-8.02144 27.25285,-6.08049 29.17938,-6.75202 35.341,-12.31866 l 5.15905,-4.6609 -0.0141,4.48848 c -0.008,2.46867 -1.20778,12.22198 -2.66667,21.67402 -1.45889,9.45204 -2.65253,20.4213 -2.65253,24.37616 0,12.1565 -5.0393,20.82092 -15.11407,25.98669 -6.9546,3.56592 -42.45616,11.57731 -58.12583,13.11685 -7.01806,0.68954 -27.7601,1.87975 -46.09344,2.64495 -37.59786,1.56925 -45.95828,2.62135 -58.57881,7.37171 -4.87484,1.83488 -15.58885,5.20193 -23.80893,7.48233 -15.52915,4.30807 -31.0301,11.3396 -43.61226,19.78338 -10.63026,7.13388 -10.39493,7.0515 -11.9331,4.1774 z m 238.19917,-263.977 c -1.15447,-9.7477 2.56192,-30.85427 5.78331,-32.84519 1.61501,-0.99813 1.60609,1.1437 -0.0759,18.22258 -1.61368,16.38508 -2.48965,21.14127 -3.89372,21.14127 -0.57292,0 -1.38909,-2.9334 -1.81372,-6.51866 z"
         style="fill:#121819;stroke-width:1.33333337" />
    </g>
  </g>
</svg>
